<?xml version="1.0" encoding="UTF-8"?>
<svg width="20" version="1.1" viewBox="0 0 1e3 401" xmlns="http://www.w3.org/2000/svg">
    <g transform="translate(-.60606 .33006)">
        <svg width="1e3" height="401" data-background-color="#000000" version="1.1"
            viewBox="0 0 396 159" xmlns="http://www.w3.org/2000/svg">
            <g transform="translate(.24 -.13087)">
                <svg width="395.52" height="159.26" viewBox="0 0 395.52 159.26174174799905">
                    <svg width="395.52" height="159.26" viewBox="0 0 395.52 159.26174174799905">
                        <svg width="395.52" height="159.26"
                            viewBox="0 0 695.1160278752059 279.8983346388449">
                            
                                <svg width="241.2" height="278.51"
                                    viewBox="0 0 241.19591242409115 278.505805610791">
                                    <svg class="icon-icon-0" width="241.2" height="278.51"
                                        enable-background="new 0 0 100 100"
                                        data-fill-palette-color="accent" version="1.0"
                                        viewBox="12.13 6.272 75.74000000000001 87.45599999999999"
                                        xml:space="preserve" xmlns="http://www.w3.org/2000/svg"><g fill="#fff" data-fill-palette-color="accent"><path d="M50 6.272L12.13 28.137v43.728L50 93.728l37.87-21.863V28.137L50 6.272zM78.438 32.691L51 16.85V9.159L84.898 28.73 78.438 32.691zM50 59.352l-7.21-4.162v-8.326L50 42.701l7.209 4.162v8.326L50 59.352zM49 40.968l-6.67 3.851-7.902-4.675L49 31.731V40.968zM40.79 46.232v8.625l-8 4.451v-17.81L40.79 46.232zM41.498 56.753L49 61.083v9.238l-15.65-9.035L41.498 56.753zM51 61.083l7.502-4.331 8.148 4.534L51 70.321V61.083zM59.209 54.855v-8.73l0.314 0.513 7.687-4.714v17.383L59.209 54.855zM58.479 44.934l0.335 0.547L51 40.969v-9.237l14.94 8.625L58.479 44.934zM49 29.422l-16.547 9.553-8.779-5.194L49 19.159V29.422zM30.79 40.315v20.107l-8 4.451V35.582L30.79 40.315zM31.313 62.42L49 72.63v8.212L24.071 66.449 31.313 62.42zM51 72.63l17.687-10.211 7.243 4.03L51 80.842V72.63zM69.21 60.421V40.698l8-4.907v29.081L69.21 60.421zM67.879 39.168L51 29.423V19.159l25.5 14.722L67.879 39.168zM49 16.849L21.699 32.612l-6.579-3.893L49 9.159V16.849zM20.79 34.398v31.588l-6.66 3.705V30.458L20.79 34.398zM22.034 67.583L49 83.15v7.691L15.251 71.357 22.034 67.583zM51 83.15l26.966-15.568 6.783 3.775L51 90.842V83.15zM79.21 65.985V34.564l6.66-4.085v39.212L79.21 65.985z" fill="#fff" data-fill-palette-color="accent"/></g></svg>
                                </svg>
                            </g>
                        </svg>
                    </svg>
                </svg>
                <rect width="395.52" height="159.26" fill="none" visibility="hidden" />
            </g>
        </svg>
    </g>
</svg>