<svg xmlns="http://www.w3.org/2000/svg" version="1.1" xmlns:xlink="http://www.w3.org/1999/xlink" xmlns:svgjs="http://svgjs.dev/svgjs" width="1000" height="1000" viewBox="0 0 1000 1000"><rect width="1000" height="1000" fill="#ffffff"></rect><g transform="matrix(0.7,0,0,0.7,149.57575757575756,359.8810405932809)"><svg xmlns="http://www.w3.org/2000/svg" version="1.1" xmlns:xlink="http://www.w3.org/1999/xlink" xmlns:svgjs="http://svgjs.com/svgjs" viewBox="0 0 396 159" data-background-color="#000000" preserveAspectRatio="xMidYMid meet" height="401" width="1000"><defs></defs><g id="tight-bounds" transform="matrix(1,0,0,1,0.2400000000000091,-0.1308708739995268)"><svg viewBox="0 0 395.52 159.26174174799905" height="159.26174174799905" width="395.52"><g><svg viewBox="0 0 395.52 159.26174174799905" height="159.26174174799905" width="395.52"><g><svg viewBox="0 0 695.1160278752059 279.8983346388449" height="159.26174174799905" width="395.52"><g><rect width="9.365593661765677" height="279.8983346388449" x="265.7131733187657" y="0" fill="#000000" opacity="1" stroke-width="0" stroke="transparent" fill-opacity="1" class="rect-borderrectangle-0" data-fill-palette-color="primary" rx="1%" id="borderrectangle-0" data-palette-color="#768fb2"></rect></g><g transform="matrix(1,0,0,1,299.59602787520595,0.6962645140269501)"><svg viewBox="0 0 395.52 278.505805610791" height="278.505805610791" width="395.52"><g><svg viewBox="0 0 395.52 278.505805610791" height="278.505805610791" width="395.52"><g><svg viewBox="0 0 395.52 225.25917159763307" height="225.25917159763307" width="395.52"><g transform="matrix(1,0,0,1,0,0)"><svg width="395.52" viewBox="0.9999999999999991 -35 139.15 74" height="225.25917159763307" data-palette-color="#768fb2"><svg xmlns="http://www.w3.org/2000/svg" version="1.1" xmlns:xlink="http://www.w3.org/1999/xlink" xmlns:svgjs="http://svgjs.com/svgjs"></svg><svg xmlns="http://www.w3.org/2000/svg" version="1.1" xmlns:xlink="http://www.w3.org/1999/xlink" xmlns:svgjs="http://svgjs.com/svgjs"></svg><g class="undefined-text-0" data-fill-palette-color="primary" id="text-0"><path d="M1-7.55h1.8c1.467 4.367 4.3 6.55 8.5 6.55v0c2.833 0 4.81-0.81 5.93-2.43 1.113-1.613 1.67-3.837 1.67-6.67v0-24.9h1.5v24.9c0 7.067-3.033 10.6-9.1 10.6v0c-2.867 0-5.077-0.717-6.63-2.15-1.547-1.433-2.77-3.4-3.67-5.9zM44.55-27.48c-1.133-0.347-2.533-0.52-4.2-0.52-1.667 0-3.067 0.173-4.2 0.52-1.133 0.353-2.173 1.003-3.12 1.95-0.953 0.953-1.663 2.337-2.13 4.15-0.467 1.82-0.7 4.113-0.7 6.88 0 2.767 0.233 5.057 0.7 6.87 0.467 1.82 1.177 3.203 2.13 4.15 0.947 0.953 1.987 1.603 3.12 1.95 1.133 0.353 2.533 0.53 4.2 0.53 1.667 0 3.067-0.177 4.2-0.53 1.133-0.347 2.177-0.997 3.13-1.95 0.947-0.947 1.653-2.33 2.12-4.15 0.467-1.813 0.7-4.103 0.7-6.87 0-2.767-0.233-5.06-0.7-6.88-0.467-1.813-1.173-3.197-2.12-4.15-0.953-0.947-1.997-1.597-3.13-1.95zM49.3-3.05c-1.8 2.367-4.783 3.55-8.95 3.55-4.167 0-7.15-1.183-8.95-3.55-1.8-2.367-2.7-6.183-2.7-11.45 0-5.267 0.9-9.083 2.7-11.45 1.8-2.367 4.783-3.55 8.95-3.55 4.167 0 7.15 1.183 8.95 3.55 1.8 2.367 2.7 6.183 2.7 11.45 0 5.267-0.9 9.083-2.7 11.45zM61.75 0h-1.5v-29h1.5l16.3 26.25v-26.25h1.5v29h-1.5l-16.3-26.3z" data-fill-palette-color="primary" fill="#000000" opacity="1"></path><path d="M25.95 3.5v35h-1.5v-17.5h-18v17.5h-1.5v-35h1.5v16h18v-16zM35.15 9.5h1.5v14.5c0 4.967 0.793 8.457 2.38 10.47 1.58 2.02 3.753 3.03 6.52 3.03 2.767 0 4.943-1.01 6.53-3.03 1.58-2.013 2.37-5.503 2.37-10.47v0-14.5h1.5v14.5c0 10-3.467 15-10.4 15-6.933 0-10.4-5-10.4-15v0zM68.75 38.5v0h-3.8v-29h3.8c4.933 0 8.867 1.3 11.8 3.9 2.933 2.6 4.4 6.133 4.4 10.6 0 4.467-1.467 8-4.4 10.6-2.933 2.6-6.867 3.9-11.8 3.9zM66.45 37h2.3c4.5 0 8.077-1.15 10.73-3.45 2.647-2.3 3.97-5.483 3.97-9.55 0-4.067-1.323-7.25-3.97-9.55-2.653-2.3-6.23-3.45-10.73-3.45v0h-2.3zM95.25 38.5v-1.5h16.3l-10.25-24.15-10.9 25.65h-1.6l12.5-29.5 12.5 29.5zM121 38.5h-1.5v-29h1.5zM140.15 38.5h-2.15l-15.4-15.3 13.8-13.7h2.15l-13.8 13.7z" data-fill-palette-color="primary" fill="#000000" opacity="1"></path></g></svg></g></svg></g><g transform="matrix(1,0,0,1,0,249.7764324923076)"><svg viewBox="0 0 232.20979199999996 28.729373118483412" height="28.729373118483412" width="232.20979199999996"><g transform="matrix(1,0,0,1,0,0)"><svg width="232.20979199999996" viewBox="0.2 -37.5 400.87 49.6" height="28.729373118483412" data-palette-color="#ffffff"><path d="M15.15 0L10.1 0 0.2-35 5.2-35 12.6-6.15 21.15-34.3 26.15-34.3 34.7-6.15 42.1-35 47.1-35 37.2 0 32.15 0 23.65-28.15 15.15 0ZM60.15 0.5L60.15 0.5Q55.82 0.5 52.87-1.28 49.92-3.05 48.41-5.99 46.9-8.93 46.9-12.45L46.9-12.45Q46.9-15.88 48.31-18.73 49.72-21.58 52.41-23.29 55.1-25 58.9-25L58.9-25Q61.95-25 64.34-23.79 66.72-22.58 68.09-20.26 69.45-17.95 69.45-14.65L69.45-14.65Q69.45-14.13 69.41-13.51 69.37-12.9 69.25-12.25L69.25-12.25 51.5-12.25Q51.82-8.85 53.12-6.95 54.42-5.05 56.4-4.28 58.37-3.5 60.7-3.5L60.7-3.5Q62.4-3.5 64.25-3.85 66.1-4.2 67.75-4.95L67.75-4.95 68.35-1.4Q66.92-0.78 64.87-0.14 62.82 0.5 60.15 0.5ZM51.9-15.35L51.9-15.35 64.8-15.35Q64.8-17.07 64.15-18.35 63.5-19.63 62.17-20.31 60.85-21 58.8-21L58.8-21Q55.8-21 54.19-19.51 52.57-18.03 51.9-15.35ZM86.05 0.5L86.05 0.5Q83.47 0.5 81.06-0.74 78.65-1.98 77.7-4.4L77.7-4.4 78.8-5.2 77.95 0 73.95 0 73.95-37.5 78.45-37.5 78.45-19.7 77.5-20.4Q78.75-22.43 81.07-23.71 83.4-25 86.05-25L86.05-25Q89.47-25 91.95-23.21 94.42-21.43 95.76-18.51 97.1-15.6 97.1-12.25L97.1-12.25Q97.1-8.68 95.62-5.79 94.15-2.9 91.65-1.2 89.15 0.5 86.05 0.5ZM85.5-3.5L85.5-3.5Q87.65-3.5 89.22-4.69 90.8-5.88 91.65-7.86 92.5-9.85 92.5-12.25L92.5-12.25Q92.5-14.75 91.65-16.73 90.8-18.7 89.22-19.85 87.65-21 85.5-21L85.5-21Q83.57-21 81.91-20.04 80.25-19.07 79.22-17.14 78.2-15.2 78.2-12.25L78.2-12.25Q78.2-9.18 79.22-7.25 80.25-5.33 81.91-4.41 83.57-3.5 85.5-3.5ZM126.89 0L113.94 0 113.94-35 126.89-35Q131.97-35 135.89-32.93 139.81-30.85 142.05-26.94 144.29-23.03 144.29-17.5L144.29-17.5Q144.29-11.98 142.05-8.06 139.81-4.15 135.89-2.08 131.97 0 126.89 0L126.89 0ZM118.69-30.7L118.69-4.3 126.89-4.3Q130.89-4.3 133.6-5.96 136.31-7.63 137.7-10.6 139.09-13.58 139.09-17.5L139.09-17.5Q139.09-21.43 137.7-24.4 136.31-27.38 133.6-29.04 130.89-30.7 126.89-30.7L126.89-30.7 118.69-30.7ZM160.79 0.5L160.79 0.5Q156.46 0.5 153.51-1.28 150.56-3.05 149.05-5.99 147.54-8.93 147.54-12.45L147.54-12.45Q147.54-15.88 148.95-18.73 150.36-21.58 153.05-23.29 155.74-25 159.54-25L159.54-25Q162.59-25 164.98-23.79 167.36-22.58 168.73-20.26 170.09-17.95 170.09-14.65L170.09-14.65Q170.09-14.13 170.05-13.51 170.01-12.9 169.89-12.25L169.89-12.25 152.14-12.25Q152.46-8.85 153.76-6.95 155.06-5.05 157.04-4.28 159.01-3.5 161.34-3.5L161.34-3.5Q163.04-3.5 164.89-3.85 166.74-4.2 168.39-4.95L168.39-4.95 168.99-1.4Q167.56-0.78 165.51-0.14 163.46 0.5 160.79 0.5ZM152.54-15.35L152.54-15.35 165.44-15.35Q165.44-17.07 164.79-18.35 164.14-19.63 162.81-20.31 161.49-21 159.44-21L159.44-21Q156.44-21 154.83-19.51 153.21-18.03 152.54-15.35ZM186.24 0L181.19 0 171.84-24.5 176.84-24.5 183.69-4.95 190.49-24.5 195.54-24.5 186.24 0ZM210.33 0.5L210.33 0.5Q206.01 0.5 203.06-1.28 200.11-3.05 198.6-5.99 197.08-8.93 197.08-12.45L197.08-12.45Q197.08-15.88 198.5-18.73 199.91-21.58 202.6-23.29 205.28-25 209.08-25L209.08-25Q212.13-25 214.52-23.79 216.91-22.58 218.27-20.26 219.63-17.95 219.63-14.65L219.63-14.65Q219.63-14.13 219.6-13.51 219.56-12.9 219.43-12.25L219.43-12.25 201.68-12.25Q202.01-8.85 203.31-6.95 204.61-5.05 206.58-4.28 208.56-3.5 210.88-3.5L210.88-3.5Q212.58-3.5 214.43-3.85 216.28-4.2 217.93-4.95L217.93-4.95 218.53-1.4Q217.11-0.78 215.06-0.14 213.01 0.5 210.33 0.5ZM202.08-15.35L202.08-15.35 214.98-15.35Q214.98-17.07 214.33-18.35 213.68-19.63 212.36-20.31 211.03-21 208.98-21L208.98-21Q205.98-21 204.37-19.51 202.76-18.03 202.08-15.35ZM231.93 0.5L230.48 0.5Q228.11 0.5 226.72-0.36 225.33-1.23 224.73-2.58 224.13-3.93 224.13-5.4L224.13-5.4 224.13-37.5 228.63-37.5 228.63-8Q228.63-5.9 228.91-4.85 229.18-3.8 230.02-3.45 230.86-3.1 232.58-3.1L232.58-3.1 231.93 0.5ZM246.43 0.5L246.43 0.5Q242.58 0.5 239.87-1.21 237.15-2.93 235.72-5.81 234.28-8.7 234.28-12.25L234.28-12.25Q234.28-15.8 235.72-18.69 237.15-21.58 239.87-23.29 242.58-25 246.43-25L246.43-25Q250.25-25 252.98-23.29 255.7-21.58 257.14-18.69 258.58-15.8 258.58-12.25L258.58-12.25Q258.58-8.7 257.14-5.81 255.7-2.93 252.98-1.21 250.25 0.5 246.43 0.5ZM246.43-3.5L246.43-3.5Q250.08-3.5 252.03-5.81 253.98-8.13 253.98-12.25L253.98-12.25Q253.98-16.38 252.03-18.69 250.08-21 246.43-21L246.43-21Q242.8-21 240.84-18.69 238.88-16.38 238.88-12.25L238.88-12.25Q238.88-8.13 240.84-5.81 242.8-3.5 246.43-3.5ZM267.73 12.1L263.23 12.1 263.23-24.5 266.73-24.5 267.53-18.9 266.28-19.8Q267.82-22.2 270.1-23.6 272.38-25 275.68-25L275.68-25Q279.03-25 281.43-23.3 283.82-21.6 285.1-18.71 286.38-15.83 286.38-12.25L286.38-12.25Q286.38-8.68 285.18-5.79 283.98-2.9 281.6-1.2 279.23 0.5 275.68 0.5L275.68 0.5Q272.75 0.5 270.39-0.71 268.03-1.93 266.98-4.35L266.98-4.35 267.73-5.25 267.73 12.1ZM274.82-3.5L274.82-3.5Q278.1-3.5 279.94-5.81 281.78-8.13 281.78-12.25L281.78-12.25Q281.78-16.38 279.94-18.69 278.1-21 274.82-21L274.82-21Q272.8-21 271.14-20.04 269.48-19.07 268.48-17.14 267.48-15.2 267.48-12.25L267.48-12.25Q267.48-9.18 268.48-7.25 269.48-5.33 271.14-4.41 272.8-3.5 274.82-3.5ZM295.57 0L291.07 0 291.07-24.5 294.57-24.5 295.47-19.8 293.77-20.6Q296.07-23.08 298.25-24.04 300.42-25 302.82-25L302.82-25Q304.62-25 306.29-24.41 307.95-23.83 309.29-22.36 310.62-20.9 311.42-18.3L311.42-18.3 310.17-18.85Q311.27-21.7 313.55-23.35 315.82-25 319.67-25L319.67-25Q322.75-25 324.85-23.86 326.95-22.73 328.01-20.39 329.07-18.05 329.07-14.45L329.07-14.45 329.07 0 324.57 0 324.57-14.4Q324.57-17.85 323.22-19.43 321.87-21 318.82-21L318.82-21Q316.67-21 315.37-20.34 314.07-19.68 313.41-18.63 312.75-17.57 312.54-16.4 312.32-15.23 312.32-14.2L312.32-14.2 312.32 0 307.82 0 307.82-13.5Q307.82-16.5 307.1-18.13 306.37-19.75 305.07-20.38 303.77-21 302.07-21L302.07-21Q299.6-21 297.65-19.91 295.7-18.82 295.02-16.45L295.02-16.45 295.57-18.9 295.57 0ZM346.67 0.5L346.67 0.5Q342.35 0.5 339.4-1.28 336.45-3.05 334.93-5.99 333.42-8.93 333.42-12.45L333.42-12.45Q333.42-15.88 334.83-18.73 336.25-21.58 338.93-23.29 341.62-25 345.42-25L345.42-25Q348.47-25 350.86-23.79 353.25-22.58 354.61-20.26 355.97-17.95 355.97-14.65L355.97-14.65Q355.97-14.13 355.93-13.51 355.9-12.9 355.77-12.25L355.77-12.25 338.02-12.25Q338.35-8.85 339.65-6.95 340.95-5.05 342.92-4.28 344.9-3.5 347.22-3.5L347.22-3.5Q348.92-3.5 350.77-3.85 352.62-4.2 354.27-4.95L354.27-4.95 354.87-1.4Q353.45-0.78 351.4-0.14 349.35 0.5 346.67 0.5ZM338.42-15.35L338.42-15.35 351.32-15.35Q351.32-17.07 350.67-18.35 350.02-19.63 348.7-20.31 347.37-21 345.32-21L345.32-21Q342.32-21 340.71-19.51 339.1-18.03 338.42-15.35ZM365.02 0L360.52 0 360.52-24.5 364.02-24.5 364.92-19.8 363.17-20.55Q365.64-23.3 368.01-24.15 370.37-25 372.62-25L372.62-25Q377.99-25 380.31-21.9 382.62-18.8 382.62-13.5L382.62-13.5 382.62 0 378.12 0 378.12-13.5Q378.12-17.4 376.67-19.2 375.22-21 371.72-21L371.72-21Q369.24-21 367.18-19.91 365.12-18.82 364.47-16.45L364.47-16.45 365.02-19.2 365.02 0ZM400.57 0.5L396.52 0.5Q394.19 0.5 392.79-0.35 391.39-1.2 390.75-2.54 390.12-3.88 390.12-5.35L390.12-5.35 390.12-21 385.92-21 386.32-24.5 390.12-24.5 390.12-30.55 394.62-31 394.62-24.5 401.07-24.5 401.07-21 394.62-21 394.62-8.1Q394.62-5.75 394.89-4.7 395.17-3.65 396.25-3.38 397.34-3.1 399.77-3.1L399.77-3.1 400.92-3.1 400.57 0.5Z" opacity="1" transform="matrix(1,0,0,1,0,0)" fill="#000000" class="undefined-text-1" data-fill-palette-color="secondary" id="text-1"></path></svg></g></svg></g></svg></g></svg></g><g transform="matrix(1,0,0,1,0,0.6962645140269501)"><svg viewBox="0 0 241.19591242409115 278.505805610791" height="278.505805610791" width="241.19591242409115"><g><svg xmlns:x="http://ns.adobe.com/Extensibility/1.0/" xmlns:i="http://ns.adobe.com/AdobeIllustrator/10.0/" xmlns:graph="http://ns.adobe.com/Graphs/1.0/" xmlns="http://www.w3.org/2000/svg" xmlns:xlink="http://www.w3.org/1999/xlink" version="1.0" x="0" y="0" viewBox="12.13 6.272 75.74000000000001 87.45599999999999" enable-background="new 0 0 100 100" xml:space="preserve" height="278.505805610791" width="241.19591242409115" class="icon-icon-0" data-fill-palette-color="accent" id="icon-0"><g fill="#ffffff" data-fill-palette-color="accent"><path d="M50 6.272L12.13 28.137v43.728L50 93.728l37.87-21.863V28.137L50 6.272zM78.438 32.691L51 16.85V9.159L84.898 28.73 78.438 32.691zM50 59.352l-7.21-4.162v-8.326L50 42.701l7.209 4.162v8.326L50 59.352zM49 40.968l-6.67 3.851-7.902-4.675L49 31.731V40.968zM40.79 46.232v8.625l-8 4.451v-17.81L40.79 46.232zM41.498 56.753L49 61.083v9.238l-15.65-9.035L41.498 56.753zM51 61.083l7.502-4.331 8.148 4.534L51 70.321V61.083zM59.209 54.855v-8.73l0.314 0.513 7.687-4.714v17.383L59.209 54.855zM58.479 44.934l0.335 0.547L51 40.969v-9.237l14.94 8.625L58.479 44.934zM49 29.422l-16.547 9.553-8.779-5.194L49 19.159V29.422zM30.79 40.315v20.107l-8 4.451V35.582L30.79 40.315zM31.313 62.42L49 72.63v8.212L24.071 66.449 31.313 62.42zM51 72.63l17.687-10.211 7.243 4.03L51 80.842V72.63zM69.21 60.421V40.698l8-4.907v29.081L69.21 60.421zM67.879 39.168L51 29.423V19.159l25.5 14.722L67.879 39.168zM49 16.849L21.699 32.612l-6.579-3.893L49 9.159V16.849zM20.79 34.398v31.588l-6.66 3.705V30.458L20.79 34.398zM22.034 67.583L49 83.15v7.691L15.251 71.357 22.034 67.583zM51 83.15l26.966-15.568 6.783 3.775L51 90.842V83.15zM79.21 65.985V34.564l6.66-4.085v39.212L79.21 65.985z" fill="#000000" data-fill-palette-color="accent"></path></g></svg><g></g></g></svg></g></svg></g></svg></g></svg><rect width="395.52" height="159.26174174799905" fill="none" stroke="none" visibility="hidden"></rect></g></svg></g></svg>