<?xml version="1.0" encoding="UTF-8"?>
<svg width="200" version="1.1" viewBox="0 0 1e3 401" xmlns="http://www.w3.org/2000/svg">
<g transform="translate(-.60606 .33006)">
<svg width="1e3" height="401" data-background-color="#000000" version="1.1" viewBox="0 0 396 159" xmlns="http://www.w3.org/2000/svg">
<g transform="translate(.24 -.13087)">
<svg width="395.52" height="159.26" viewBox="0 0 395.52 159.26174174799905">
<svg width="395.52" height="159.26" viewBox="0 0 395.52 159.26174174799905">
<svg width="395.52" height="159.26" viewBox="0 0 695.1160278752059 279.8983346388449">
<rect class="rect-borderrectangle-0" x="265.71" width="9.3656" height="279.9" rx="1%" fill="#768fb2" stroke="transparent" stroke-width="0" data-fill-palette-color="primary" data-palette-color="#768fb2"/>
<g transform="translate(299.6 .69626)">
<svg width="395.52" height="278.51" viewBox="0 0 395.52 278.505805610791">
<svg width="395.52" height="278.51" viewBox="0 0 395.52 278.505805610791">
<svg width="395.52" height="225.26" viewBox="0 0 395.52 225.25917159763307">
<g>
<svg width="395.52" height="225.26" data-palette-color="#768fb2" viewBox="0.9999999999999991 -35 139.15 74">
<svg version="1.1" xmlns="http://www.w3.org/2000/svg"/>
<svg version="1.1" xmlns="http://www.w3.org/2000/svg"/>
<g class="undefined-text-0" fill="#768fb2" data-fill-palette-color="primary">
<path d="m1-7.55h1.8c1.467 4.367 4.3 6.55 8.5 6.55 2.833 0 4.81-0.81 5.93-2.43 1.113-1.613 1.67-3.837 1.67-6.67v-24.9h1.5v24.9c0 7.067-3.033 10.6-9.1 10.6-2.867 0-5.077-0.717-6.63-2.15-1.547-1.433-2.77-3.4-3.67-5.9zm43.55-19.93c-1.133-0.347-2.533-0.52-4.2-0.52s-3.067 0.173-4.2 0.52c-1.133 0.353-2.173 1.003-3.12 1.95-0.953 0.953-1.663 2.337-2.13 4.15-0.467 1.82-0.7 4.113-0.7 6.88s0.233 5.057 0.7 6.87c0.467 1.82 1.177 3.203 2.13 4.15 0.947 0.953 1.987 1.603 3.12 1.95 1.133 0.353 2.533 0.53 4.2 0.53s3.067-0.177 4.2-0.53c1.133-0.347 2.177-0.997 3.13-1.95 0.947-0.947 1.653-2.33 2.12-4.15 0.467-1.813 0.7-4.103 0.7-6.87s-0.233-5.06-0.7-6.88c-0.467-1.813-1.173-3.197-2.12-4.15-0.953-0.947-1.997-1.597-3.13-1.95zm4.75 24.43c-1.8 2.367-4.783 3.55-8.95 3.55s-7.15-1.183-8.95-3.55-2.7-6.183-2.7-11.45 0.9-9.083 2.7-11.45 4.783-3.55 8.95-3.55 7.15 1.183 8.95 3.55 2.7 6.183 2.7 11.45-0.9 9.083-2.7 11.45zm12.45 3.05h-1.5v-29h1.5l16.3 26.25v-26.25h1.5v29h-1.5l-16.3-26.3z" data-fill-palette-color="primary"/>
<path d="m25.95 3.5v35h-1.5v-17.5h-18v17.5h-1.5v-35h1.5v16h18v-16zm9.2 6h1.5v14.5c0 4.967 0.793 8.457 2.38 10.47 1.58 2.02 3.753 3.03 6.52 3.03s4.943-1.01 6.53-3.03c1.58-2.013 2.37-5.503 2.37-10.47v-14.5h1.5v14.5c0 10-3.467 15-10.4 15s-10.4-5-10.4-15zm33.6 29h-3.8v-29h3.8c4.933 0 8.867 1.3 11.8 3.9s4.4 6.133 4.4 10.6-1.467 8-4.4 10.6-6.867 3.9-11.8 3.9zm-2.3-1.5h2.3c4.5 0 8.077-1.15 10.73-3.45 2.647-2.3 3.97-5.483 3.97-9.55s-1.323-7.25-3.97-9.55c-2.653-2.3-6.23-3.45-10.73-3.45h-2.3zm28.8 1.5v-1.5h16.3l-10.25-24.15-10.9 25.65h-1.6l12.5-29.5 12.5 29.5zm25.75 0h-1.5v-29h1.5zm19.15 0h-2.15l-15.4-15.3 13.8-13.7h2.15l-13.8 13.7z" data-fill-palette-color="primary"/>
</g>
</svg>
</g>
</svg>
<g transform="translate(0 249.78)">
<svg width="232.21" height="28.729" viewBox="0 0 232.20979199999996 28.729373118483412">
<g>
<svg width="232.21" height="28.729" data-palette-color="#ffffff" viewBox="0.2 -37.5 400.87 49.6">
<path class="undefined-text-1" d="m15.15 0h-5.05l-9.9-35h5l7.4 28.85 8.55-28.15h5l8.55 28.15 7.4-28.85h5l-9.9 35h-5.05l-8.5-28.15-8.5 28.15zm45 0.5q-4.33 0-7.28-1.78-2.95-1.77-4.46-4.71t-1.51-6.46q0-3.43 1.41-6.28t4.1-4.56 6.49-1.71q3.05 0 5.44 1.21 2.38 1.21 3.75 3.53 1.36 2.31 1.36 5.61 0 0.52-0.04 1.14-0.04 0.61-0.16 1.26h-17.75q0.32 3.4 1.62 5.3t3.28 2.67q1.97 0.78 4.3 0.78 1.7 0 3.55-0.35t3.5-1.1l0.6 3.55q-1.43 0.62-3.48 1.26t-4.72 0.64zm-8.25-15.85h12.9q0-1.72-0.65-3t-1.98-1.96q-1.32-0.69-3.37-0.69-3 0-4.61 1.49-1.62 1.48-2.29 4.16zm34.15 15.85q-2.58 0-4.99-1.24t-3.36-3.66l1.1-0.8-0.85 5.2h-4v-37.5h4.5v17.8l-0.95-0.7q1.25-2.03 3.57-3.31 2.33-1.29 4.98-1.29 3.42 0 5.9 1.79 2.47 1.78 3.81 4.7 1.34 2.91 1.34 6.26 0 3.57-1.48 6.46-1.47 2.89-3.97 4.59t-5.6 1.7zm-0.55-4q2.15 0 3.72-1.19 1.58-1.19 2.43-3.17 0.85-1.99 0.85-4.39 0-2.5-0.85-4.48-0.85-1.97-2.43-3.12-1.57-1.15-3.72-1.15-1.93 0-3.59 0.96-1.66 0.97-2.69 2.9-1.02 1.94-1.02 4.89 0 3.07 1.02 5 1.03 1.92 2.69 2.84 1.66 0.91 3.59 0.91zm41.39 3.5h-12.95v-35h12.95q5.08 0 9 2.07 3.92 2.08 6.16 5.99t2.24 9.44q0 5.52-2.24 9.44-2.24 3.91-6.16 5.98-3.92 2.08-9 2.08zm-8.2-30.7v26.4h8.2q4 0 6.71-1.66 2.71-1.67 4.1-4.64 1.39-2.98 1.39-6.9 0-3.93-1.39-6.9-1.39-2.98-4.1-4.64t-6.71-1.66h-8.2zm42.1 31.2q-4.33 0-7.28-1.78-2.95-1.77-4.46-4.71t-1.51-6.46q0-3.43 1.41-6.28t4.1-4.56 6.49-1.71q3.05 0 5.44 1.21 2.38 1.21 3.75 3.53 1.36 2.31 1.36 5.61 0 0.52-0.04 1.14-0.04 0.61-0.16 1.26h-17.75q0.32 3.4 1.62 5.3t3.28 2.67q1.97 0.78 4.3 0.78 1.7 0 3.55-0.35t3.5-1.1l0.6 3.55q-1.43 0.62-3.48 1.26t-4.72 0.64zm-8.25-15.85h12.9q0-1.72-0.65-3t-1.98-1.96q-1.32-0.69-3.37-0.69-3 0-4.61 1.49-1.62 1.48-2.29 4.16zm33.7 15.35h-5.05l-9.35-24.5h5l6.85 19.55 6.8-19.55h5.05l-9.3 24.5zm24.09 0.5q-4.32 0-7.27-1.78-2.95-1.77-4.46-4.71-1.52-2.94-1.52-6.46 0-3.43 1.42-6.28 1.41-2.85 4.1-4.56 2.68-1.71 6.48-1.71 3.05 0 5.44 1.21t3.75 3.53q1.36 2.31 1.36 5.61 0 0.52-0.03 1.14-0.04 0.61-0.17 1.26h-17.75q0.33 3.4 1.63 5.3t3.27 2.67q1.98 0.78 4.3 0.78 1.7 0 3.55-0.35t3.5-1.1l0.6 3.55q-1.42 0.62-3.47 1.26t-4.73 0.64zm-8.25-15.85h12.9q0-1.72-0.65-3t-1.97-1.96q-1.33-0.69-3.38-0.69-3 0-4.61 1.49-1.61 1.48-2.29 4.16zm29.85 15.85h-1.45q-2.37 0-3.76-0.86-1.39-0.87-1.99-2.22t-0.6-2.82v-32.1h4.5v29.5q0 2.1 0.28 3.15 0.27 1.05 1.11 1.4t2.56 0.35l-0.65 3.6zm14.5 0q-3.85 0-6.56-1.71-2.72-1.72-4.15-4.6-1.44-2.89-1.44-6.44t1.44-6.44q1.43-2.89 4.15-4.6 2.71-1.71 6.56-1.71 3.82 0 6.55 1.71 2.72 1.71 4.16 4.6t1.44 6.44-1.44 6.44q-1.44 2.88-4.16 4.6-2.73 1.71-6.55 1.71zm0-4q3.65 0 5.6-2.31 1.95-2.32 1.95-6.44 0-4.13-1.95-6.44t-5.6-2.31q-3.63 0-5.59 2.31t-1.96 6.44q0 4.12 1.96 6.44 1.96 2.31 5.59 2.31zm21.3 15.6h-4.5v-36.6h3.5l0.8 5.6-1.25-0.9q1.54-2.4 3.82-3.8t5.58-1.4q3.35 0 5.75 1.7 2.39 1.7 3.67 4.59 1.28 2.88 1.28 6.46 0 3.57-1.2 6.46t-3.58 4.59q-2.37 1.7-5.92 1.7-2.93 0-5.29-1.21-2.36-1.22-3.41-3.64l0.75-0.9v17.35zm7.09-15.6q3.28 0 5.12-2.31 1.84-2.32 1.84-6.44 0-4.13-1.84-6.44t-5.12-2.31q-2.02 0-3.68 0.96-1.66 0.97-2.66 2.9-1 1.94-1 4.89 0 3.07 1 5 1 1.92 2.66 2.84 1.66 0.91 3.68 0.91zm20.75 3.5h-4.5v-24.5h3.5l0.9 4.7-1.7-0.8q2.3-2.48 4.48-3.44 2.17-0.96 4.57-0.96 1.8 0 3.47 0.59 1.66 0.58 3 2.05 1.33 1.46 2.13 4.06l-1.25-0.55q1.1-2.85 3.38-4.5 2.27-1.65 6.12-1.65 3.08 0 5.18 1.14 2.1 1.13 3.16 3.47t1.06 5.94v14.45h-4.5v-14.4q0-3.45-1.35-5.03-1.35-1.57-4.4-1.57-2.15 0-3.45 0.66t-1.96 1.71q-0.66 1.06-0.87 2.23-0.22 1.17-0.22 2.2v14.2h-4.5v-13.5q0-3-0.72-4.63-0.73-1.62-2.03-2.25-1.3-0.62-3-0.62-2.47 0-4.42 1.09t-2.63 3.46l0.55-2.45v18.9zm51.1 0.5q-4.32 0-7.27-1.78-2.95-1.77-4.47-4.71-1.51-2.94-1.51-6.46 0-3.43 1.41-6.28 1.42-2.85 4.1-4.56 2.69-1.71 6.49-1.71 3.05 0 5.44 1.21t3.75 3.53q1.36 2.31 1.36 5.61 0 0.52-0.04 1.14-0.03 0.61-0.16 1.26h-17.75q0.33 3.4 1.63 5.3t3.27 2.67q1.98 0.78 4.3 0.78 1.7 0 3.55-0.35t3.5-1.1l0.6 3.55q-1.42 0.62-3.47 1.26t-4.73 0.64zm-8.25-15.85h12.9q0-1.72-0.65-3t-1.97-1.96q-1.33-0.69-3.38-0.69-3 0-4.61 1.49-1.61 1.48-2.29 4.16zm26.6 15.35h-4.5v-24.5h3.5l0.9 4.7-1.75-0.75q2.47-2.75 4.84-3.6 2.36-0.85 4.61-0.85 5.37 0 7.69 3.1 2.31 3.1 2.31 8.4v13.5h-4.5v-13.5q0-3.9-1.45-5.7t-4.95-1.8q-2.48 0-4.54 1.09t-2.71 3.46l0.55-2.75v19.2zm35.55 0.5h-4.05q-2.33 0-3.73-0.85t-2.04-2.19q-0.63-1.34-0.63-2.81v-15.65h-4.2l0.4-3.5h3.8v-6.05l4.5-0.45v6.5h6.45v3.5h-6.45v12.9q0 2.35 0.27 3.4 0.28 1.05 1.36 1.32 1.09 0.28 3.52 0.28h1.15l-0.35 3.6z" fill="#fff" data-fill-palette-color="secondary"/>
</svg>
</g>
</svg>
</g>
</svg>
</svg>
</g>
<g transform="translate(0 .69626)">
<svg width="241.2" height="278.51" viewBox="0 0 241.19591242409115 278.505805610791">
<svg class="icon-icon-0" width="241.2" height="278.51" enable-background="new 0 0 100 100" data-fill-palette-color="accent" version="1.0" viewBox="12.13 6.272 75.74000000000001 87.45599999999999" xml:space="preserve" xmlns="http://www.w3.org/2000/svg"><g fill="#fff" data-fill-palette-color="accent"><path d="M50 6.272L12.13 28.137v43.728L50 93.728l37.87-21.863V28.137L50 6.272zM78.438 32.691L51 16.85V9.159L84.898 28.73 78.438 32.691zM50 59.352l-7.21-4.162v-8.326L50 42.701l7.209 4.162v8.326L50 59.352zM49 40.968l-6.67 3.851-7.902-4.675L49 31.731V40.968zM40.79 46.232v8.625l-8 4.451v-17.81L40.79 46.232zM41.498 56.753L49 61.083v9.238l-15.65-9.035L41.498 56.753zM51 61.083l7.502-4.331 8.148 4.534L51 70.321V61.083zM59.209 54.855v-8.73l0.314 0.513 7.687-4.714v17.383L59.209 54.855zM58.479 44.934l0.335 0.547L51 40.969v-9.237l14.94 8.625L58.479 44.934zM49 29.422l-16.547 9.553-8.779-5.194L49 19.159V29.422zM30.79 40.315v20.107l-8 4.451V35.582L30.79 40.315zM31.313 62.42L49 72.63v8.212L24.071 66.449 31.313 62.42zM51 72.63l17.687-10.211 7.243 4.03L51 80.842V72.63zM69.21 60.421V40.698l8-4.907v29.081L69.21 60.421zM67.879 39.168L51 29.423V19.159l25.5 14.722L67.879 39.168zM49 16.849L21.699 32.612l-6.579-3.893L49 9.159V16.849zM20.79 34.398v31.588l-6.66 3.705V30.458L20.79 34.398zM22.034 67.583L49 83.15v7.691L15.251 71.357 22.034 67.583zM51 83.15l26.966-15.568 6.783 3.775L51 90.842V83.15zM79.21 65.985V34.564l6.66-4.085v39.212L79.21 65.985z" fill="#fff" data-fill-palette-color="accent"/></g></svg>
</svg>
</g>
</svg>
</svg>
</svg>
<rect width="395.52" height="159.26" fill="none" visibility="hidden"/>
</g>
</svg>
</g>
</svg>